<?xml version="1.0" encoding="UTF-8"?>
<svg version="1.1" viewBox="0 0 2048 2048" width="2000" height="449" xmlns="http://www.w3.org/2000/svg">
<path transform="translate(0)" d="m0 0h2048v2048h-2048z" fill="#FEFEFE"/>
<path transform="translate(1234,337)" d="m0 0h145l4 8 12 41 11 40 7 25 13 45 15 50 14 52 4 8 3-4 7-25 13-47 20-69 12-43 14-51 4-12 3-15 3-2 117-1 29 1v218l-1 210-60 1h-40l-1-1 1-89 2-139 1-30v-51l-2 1-5 14-8 31-11 39-7 24-15 53-12 41-19 64-10 37-4 4-13 2h-48l-10-2-3-6-8-30-10-35-11-40-19-65-13-47-9-34-12-40-4-10h-2v17l1 31 1 164 1 95-1 1-19 1h-77l-3-1z" fill="#020202"/>
<path transform="translate(871,809)" d="m0 0h56l23 1 3 7 8 24 9 23 12 31 15 40 14 37 15 39 12 31 14 37 11 29 8 21 14 37 12 31 15 36 1 3-1 1-8 1-109-1-3-1-4-8-10-32-5-17-3-2h-143l-4 1-3 8-4 17-10 32-3 3h-45l-61-1-12-1 3-9 8-16 22-55 17-43 13-34 12-31 14-34 5-13 17-43 10-26 17-43 16-43 10-25 3-10 1-1z" fill="#020202"/>
<path transform="translate(361,809)" d="m0 0h54l107 1 33 2 20 3 19 5 18 8 14 9 14 11 10 11 7 10 9 15 9 23 5 23 1 9v31l-3 19-6 23-6 16-10 18-11 13-5 5-10 9-15 10-16 8-16 6-21 4-22 2-20 1-50 1-1 132-78 1h-31v-428z" fill="#020202"/>
<path transform="translate(360,1281)" d="m0 0h67l43 1 1 181 1 4 5-5 8-13 11-19 12-19 19-29 12-19 15-24 12-19 11-18 6-9 5-10 5-2h113l-8 14-18 27-7 10-12 19-30 45-15 23-7 11-10 15-8 11-24 36 2 6 11 16 14 19 39 54 14 20 12 17 12 16 13 19 9 12 10 14 11 15 6 10-1 1-37-1h-96l-10-17-11-18-14-22-15-23-12-19-11-17-13-20-11-18-8-14-8-10-2-2-1 2v132l-1 46-108 1-1-1z" fill="#020202"/>
<path transform="translate(888,1281)" d="m0 0h109l1 2v256l1 22 3 19 5 13 6 10 9 8 14 7 5 1h20l16-3 9-5 8-9 6-12 4-16 1-14 1-265-2-12 6-2h107l-1 262-2 33-3 21-5 22-5 15-11 18-12 14-13 13-18 13-18 10-12 5-15 5-23 4-14 1h-22l-22-2-20-4-19-6-12-5-14-8-13-9-15-14-12-15-12-19-5-12-5-17-4-24-2-35z" fill="#020202"/>
<path transform="translate(491,330)" d="m0 0h26l25 3 20 5 12 5 17 9 11 8 10 9 9 9 7 10 10 19 7 21 4 18 1 7v8l-3 2-8 1-97 1-2-2-4-17-6-12-11-8-10-3h-12l-10 3-6 4-8 7-6 10-3 8v6l6 8 9 8 16 9 22 11 33 15 17 8 23 13 16 10 14 12 10 11 10 15 8 19 4 16 1 9v19l-2 19-4 21-6 18-8 14-7 9-11 12-13 11-20 12-18 7-16 4-28 3h-31l-26-3-18-4-15-5-16-8-14-9-12-11-8-8-10-14-8-16-6-15-5-20-4-31 1-5 1-1 80-2h23l6 2 6 28 5 10 9 10 10 6 10 3h11l12-4 8-7 8-9 5-10 1-11-2-10-4-6-10-8-16-8-23-11-29-13-19-8-23-12-10-7-10-8-15-15-11-15-7-15-6-20-2-14v-16l3-19 4-15 5-13 9-16 8-10 13-13 13-10 15-9 16-8 18-6 21-4z" fill="#020202"/>
<path transform="translate(1531,1273)" d="m0 0h24l24 3 15 4 16 6 16 8 12 8 10 8 9 9 10 14 11 21 8 24 4 20-1 7-10 3h-92l-7-1-4-9-6-17-4-6-8-5-11-3h-11l-12 3-10 7-6 7-4 9-1 10 4 8 9 9 11 7 22 11 25 11 26 12 23 12 16 10 13 10 11 10 9 11 8 13 6 15 4 16 1 7v31l-3 19-6 21-7 16-8 12-9 11-10 10-15 11-16 8-19 7-20 4-18 2h-33l-20-2-16-3-20-6-21-10-12-8-12-11-10-10-10-15-8-18-6-18-4-19-1-8v-19l7-3 9-1h90l4 4 3 18 4 12 7 11 7 6 13 6 4 1h13l12-4 11-9 6-9 4-10v-12l-4-9-7-7-15-10-38-18-30-13-9-4-22-11-10-7-9-7-10-9-9-10-7-10-8-15-5-15-3-15-1-10v-12l3-19 5-19 8-16 9-14 11-12 9-9 16-11 18-10 13-6 22-6 12-2z" fill="#020202"/>
<path transform="translate(889,337)" d="m0 0h78l1 1v47l-1 40-3 10-11 21-13 22-15 27-10 17-12 22-13 23-16 30-6 10-14 25-14 24-7 13h40l94-1 1 4-1 93-2 1-171 1h-39l-54-1-4-1v-21l1-16v-19l-1-8 4-13 15-28 9-15 14-25 14-24 14-25 13-23 14-24 16-29 15-28 9-16 9-14v-2h-144l-1-1-1-96z" fill="#020202"/>
<path transform="translate(1150,809)" d="m0 0h277l1 1v27l-1 70h-84v331h-109l-1-330h-82l-1-1-1-97z" fill="#020202"/>
<path transform="translate(1574,809)" d="m0 0h109l1 1v72l-1 355-1 1h-108z" fill="#020202"/>
<path transform="translate(1043,340)" d="m0 0h106l2 4v198l-1 227h-108l-1-8 1-420z" fill="#020202"/>
<path transform="translate(471,906)" d="m0 0 37 1 28 2 13 3 11 6 8 9 6 12 3 11 1 13-2 9-7 14-10 11-10 5-14 3-49 3h-16l-1-1v-94z" fill="#FEFEFE"/>
<path transform="translate(895,945)" d="m0 0 3 1 6 14 9 33 29 87 1 7-1 1h-91l1-7 9-25 12-38 9-30 6-21 4-16z" fill="#FEFEFE"/>
</svg>
